<svg xmlns="http://www.w3.org/2000/svg" width="80" height="80" viewBox="0 0 80 80">
  <g id="Group_5793" data-name="Group 5793" transform="translate(-1616 -3187)">
    <rect id="icon1_copy" data-name="icon1 copy" width="80" height="80" transform="translate(1616 3187)" fill="none"/>
    <g id="PAR_DES_LABORATOIRES_INDEPENDANTS_large" transform="translate(1592.464 3549.641)">
      <path id="Path_14624" data-name="Path 14624" d="M195.929-359.435c-.865.506-.886.549-.612.971.148.232.359.211,1.1-.169,1.14-.591,1.076-.506.907-.929C197.153-360,196.878-359.984,195.929-359.435Z" transform="translate(-131.886)"/>
      <path id="Path_14625" data-name="Path 14625" d="M170.47-348.7c-1.266.148-1.414.253-1.224.844.106.338.253.422.633.317.591-.148.654.021.844,2.131.232,2.87.3,3.06.886,3.06.612,0,.591.169.148-4.178l-.148-1.308h.57c.443,0,.549-.106.549-.528C172.728-348.954,172.622-348.954,170.47-348.7Z" transform="translate(-111.386 -8.687)"/>
      <path id="Path_14626" data-name="Path 14626" d="M191-345.835v3.165h1.688c1.667,0,1.688,0,1.688-.528,0-.506-.063-.528-1.161-.528h-1.161V-345.2h1.161c1.1,0,1.161-.021,1.161-.528,0-.485-.063-.528-1.055-.528h-1.055v-1.688h1.161c1.1,0,1.161-.021,1.161-.528,0-.528-.021-.528-1.794-.528H191Z" transform="translate(-128.603 -8.578)"/>
      <path id="Path_14627" data-name="Path 14627" d="M158-345.916c0,.084,1.013,5.17,1.161,5.761a.6.6,0,0,0,1.055.274,19.069,19.069,0,0,0-.464-3.165c-.57-2.954-.57-2.954-1.161-2.954A1.189,1.189,0,0,0,158-345.916Z" transform="translate(-102.567 -10.945)"/>
      <path id="Path_14628" data-name="Path 14628" d="M224.816-345.033c-.253.781-1.562,5.93-1.519,5.993a2.425,2.425,0,0,0,.57.105c.422.063.528-.084.781-1.034l.317-1.076,1.118.106c1.013.105,1.182.063,1.667-.422a2.166,2.166,0,0,0,.19-2.659C227.475-344.59,224.942-345.392,224.816-345.033Zm1.962,1.54a.828.828,0,0,1-.464,1.562c-.8,0-1.013-.3-.865-1.139C225.618-343.915,226-344.042,226.778-343.493Z" transform="translate(-154.084 -11.637)"/>
      <path id="Path_14629" data-name="Path 14629" d="M129.313-340.431a3.422,3.422,0,0,0-1.794,3.862,3.629,3.629,0,0,0,1.878,2.195,4.376,4.376,0,0,0,3.081-.211,3.252,3.252,0,0,0,1.393-1.984c0-.57-.76-.274-1.6.612a1.928,1.928,0,0,1-3.018.063c-1.6-1.6-.063-4.347,2.047-3.609a1.585,1.585,0,0,0,1.2-.042l.633-.253-.591-.4A4.182,4.182,0,0,0,129.313-340.431Z" transform="translate(-78.439 -15.164)"/>
      <path id="Path_14630" data-name="Path 14630" d="M246.9-338.061c-.105.19-.675,1.5-1.287,2.891-1.013,2.342-1.055,2.532-.717,2.785.57.4.633.359,1.161-.844l.485-1.1.3,1.5c.253,1.266.38,1.562.823,1.751a1.071,1.071,0,0,0,.633.169,5.226,5.226,0,0,0-.211-1.393l-.3-1.287h.612a2.087,2.087,0,0,0,1.857-2.068c0-1.013-.464-1.519-2.047-2.258C247.17-338.377,247.065-338.4,246.9-338.061Zm2.195,2.174a.842.842,0,0,1-.232.844c-.422.464-.844.506-1.5.127l-.464-.253.4-.907.4-.907.633.317A1.673,1.673,0,0,1,249.09-335.887Z" transform="translate(-170.973 -17.027)"/>
      <path id="Path_14631" data-name="Path 14631" d="M102.727-323.288c-.338.253-.338.443.19,3.524.3,1.794.591,3.292.633,3.334s.274-.042.528-.169c.422-.211.464-.38.359-1.161-.127-.886-.127-.907.865-1.562l.971-.633.7.528c.57.443.739.485,1.2.253.3-.127.549-.3.549-.359a20.226,20.226,0,0,0-2.258-1.709C103-323.668,103.149-323.6,102.727-323.288Zm2.342,2.6c.084.274-.8.781-.992.57a3.134,3.134,0,0,1-.317-.992l-.148-.844.7.528A3.528,3.528,0,0,1,105.07-320.692Z" transform="translate(-58.774 -28.74)"/>
      <path id="Path_14632" data-name="Path 14632" d="M270.879-320.509a3.756,3.756,0,0,0-1.224,1.329,3.3,3.3,0,0,0,4.621,4.368,3.614,3.614,0,0,0,1.667-2.807,4.4,4.4,0,0,0-1.414-2.743A4.173,4.173,0,0,0,270.879-320.509Zm2.933,1.013a2.271,2.271,0,0,1-1.393,4.094,2.184,2.184,0,0,1-1.941-2.828A2.286,2.286,0,0,1,273.812-319.5Z" transform="translate(-190.335 -30.781)"/>
      <path id="Path_14633" data-name="Path 14633" d="M73.407-306.725a4.094,4.094,0,0,0-1.287.865,3.2,3.2,0,0,0,1.076,5.4,3.132,3.132,0,0,0,4.389-3.018v-1.14l-.528.485a1.642,1.642,0,0,0-.528,1.013A2.056,2.056,0,0,1,75.918-302a2.2,2.2,0,0,1-3.524-2.511,1.781,1.781,0,0,1,1.667-1.1,1.619,1.619,0,0,0,.971-.506c.4-.443.422-.506.127-.633A3.727,3.727,0,0,0,73.407-306.725Z" transform="translate(-33.969 -41.843)"/>
      <path id="Path_14634" data-name="Path 14634" d="M296.857-301.227c-1.794,1.709-1.857,1.794-1.857,2.7a2.431,2.431,0,0,0,.422,1.5,2.713,2.713,0,0,0,2.342.886,18.484,18.484,0,0,0,3.988-3.587.889.889,0,0,0-.317-.528c-.253-.211-.612.021-2.047,1.351-1.794,1.646-2.385,1.9-3,1.266-.654-.633-.38-1.182,1.372-2.828,1.625-1.519,1.709-1.625,1.435-2.068-.169-.253-.338-.464-.4-.464A25.612,25.612,0,0,0,296.857-301.227Z" transform="translate(-210.657 -44.871)"/>
      <path id="Path_14635" data-name="Path 14635" d="M57.59-283.557c-.169.253-.211.528-.106.612.7.591,4.748,3.587,4.875,3.587.084,0,.274-.19.4-.422.253-.359.042-.57-2.216-2.3-1.351-1.055-2.511-1.92-2.574-1.92S57.738-283.789,57.59-283.557Z" transform="translate(-23.218 -59.862)"/>
      <path id="Path_14636" data-name="Path 14636" d="M314.941-278.383A23.122,23.122,0,0,0,313-275.556c0,.654.612.654,3.8.021,1.794-.338,3.292-.654,3.313-.7.042-.042-.084-.274-.3-.506l-.38-.464-2.216.528c-1.224.3-2.342.528-2.49.528s.464-.907,1.329-1.984c1.414-1.751,1.583-2.068,1.372-2.427-.127-.253-.3-.443-.4-.443A23.28,23.28,0,0,0,314.941-278.383Z" transform="translate(-224.859 -62.229)"/>
      <path id="Path_14637" data-name="Path 14637" d="M45.76-272.239a8.289,8.289,0,0,0-.76,1.414,36.7,36.7,0,0,0,5.191,3.208c.148.042.38-.127.506-.359.19-.4.106-.506-.844-1.1a4.946,4.946,0,0,1-1.055-.781,3.611,3.611,0,0,1,.422-.844c.506-.844.506-.823,0-1.1-.359-.19-.485-.106-.95.612l-.549.823-.633-.338c-.717-.422-.739-.464-.19-1.351.528-.865.528-.95.021-1.224C46.562-273.463,46.414-273.336,45.76-272.239Z" transform="translate(-13.413 -68.267)"/>
      <path id="Path_14638" data-name="Path 14638" d="M35.9-252.848a7.964,7.964,0,0,0-.612,1.54c.021,0,1.308.57,2.87,1.266,2.7,1.182,2.828,1.224,3.1.844a1.4,1.4,0,0,0,.3-.549,3.41,3.41,0,0,0-1.182-.612c-.886-.38-1.14-.549-1.034-.823.549-1.308.57-1.54.3-1.73-.485-.3-.591-.232-1.034.654a2.81,2.81,0,0,1-.528.844,9.386,9.386,0,0,1-1.329-.549,2.9,2.9,0,0,1,.38-.928,2.741,2.741,0,0,0,.38-.95c-.042-.021-.253-.148-.506-.274C36.592-254.326,36.508-254.22,35.9-252.848Z" transform="translate(-5.744 -83.374)"/>
      <path id="Path_14639" data-name="Path 14639" d="M325.826-249.868c-1.329.57-2.6,1.118-2.785,1.2-.317.148-.3.317.3,1.688.612,1.5.844,1.709,1.393,1.372.211-.148.169-.4-.169-1.182-.232-.549-.422-1.034-.422-1.076a2.947,2.947,0,0,1,1.456-.422,2.581,2.581,0,0,1,.443.95c.232.717.359.823.717.717.633-.19.633-.211.253-1.2a6.4,6.4,0,0,1-.338-1.034,3.894,3.894,0,0,1,1.393-.591,7.417,7.417,0,0,1,.422.95c.359.95.57,1.1,1.118.76.232-.148.169-.464-.316-1.688-.338-.823-.7-1.5-.823-1.477A27.893,27.893,0,0,0,325.826-249.868Z" transform="translate(-232.621 -85.975)"/>
      <path id="Path_14640" data-name="Path 14640" d="M355.316-249.676c-.106.148.169.528.654.95.739.633.844.675,1.14.38.317-.317.274-.4-.4-.95C355.907-249.971,355.548-250.077,355.316-249.676Z" transform="translate(-258.228 -86.758)"/>
      <path id="Path_14641" data-name="Path 14641" d="M28.674-231.49a11.367,11.367,0,0,0-.633,2.764c.169.148,5.909,1.688,5.972,1.6a14.277,14.277,0,0,0,.844-3.186.755.755,0,0,0-.506-.169c-.274,0-.464.253-.633.781-.127.443-.274.907-.317,1.055-.063.19-.253.211-.781.021-.38-.127-.717-.253-.739-.253a5.432,5.432,0,0,1,.253-1.034c.253-.886.253-1.034,0-1.118-.528-.211-.8.021-1.055.886-.211.76-.274.823-.95.76a1.9,1.9,0,0,1-.8-.148,4.011,4.011,0,0,1,.232-1.14c.274-.928.274-1.076,0-1.161C29.032-232.039,28.864-231.976,28.674-231.49Z" transform="translate(-0.019 -100.934)"/>
      <path id="Path_14642" data-name="Path 14642" d="M152.352-231.116c-5.571,3.355-11.036,9.348-14.518,15.89-.485.886-.907,1.667-.95,1.709a8.612,8.612,0,0,1-1.372-1.182,22.565,22.565,0,0,0-5.655-3.862,30.006,30.006,0,0,0-4.579-1.9,12.274,12.274,0,0,0,1.836,1.287,30.387,30.387,0,0,1,9.137,8.884c.591.907,1.161,1.562,1.224,1.477a18.059,18.059,0,0,0,.929-2.258,45.553,45.553,0,0,1,6.267-11.458,79.3,79.3,0,0,1,8.293-8.673C154.04-232.044,153.871-232.023,152.352-231.116Z" transform="translate(-76.745 -101.034)"/>
      <path id="Path_14643" data-name="Path 14643" d="M333.074-227.907c-1.562.422-2.87.781-2.912.8a14.5,14.5,0,0,0,.8,3.123.672.672,0,0,0,.591.063c.4-.127.4-.19.148-1.2-.274-1.055-.274-1.055.253-1.266.7-.253,1.118-.106,1.118.38a3.2,3.2,0,0,0,.274.928c.211.464.338.528.717.4.443-.169.443-.232.169-1.161-.3-.95-.3-.971.232-1.161.929-.359,1.1-.253,1.351.844.232.95.316,1.055.717.928.232-.084.464-.169.506-.19a11.231,11.231,0,0,0-.907-3.186A30.8,30.8,0,0,0,333.074-227.907Z" transform="translate(-238.391 -103.567)"/>
      <path id="Path_14644" data-name="Path 14644" d="M343.314-182.71a1.727,1.727,0,0,0,.19,2.342,1.417,1.417,0,0,0,2.089-.084,1.417,1.417,0,0,0,.084-2.089A1.7,1.7,0,0,0,343.314-182.71Z" transform="translate(-248.484 -139.459)"/>
      <path id="Path_14645" data-name="Path 14645" d="M331.221-145.368c-.19.57-.084.654,1.118,1.076.654.232.971.443.907.633a3.064,3.064,0,0,0,.317,2.511,2.236,2.236,0,0,0,2.49.359,6.289,6.289,0,0,0,1.393-2.975,8.942,8.942,0,0,0-2.785-1.076c-1.54-.443-2.912-.844-3.06-.886C331.474-145.769,331.305-145.621,331.221-145.368Zm4.832,2.617c-.232.739-.549.992-1.118.928-.422-.042-.57-.19-.612-.654-.127-1.055.042-1.182,1.013-.95C336.075-143.237,336.18-143.152,336.053-142.751Z" transform="translate(-239.176 -168.951)"/>
      <path id="Path_14646" data-name="Path 14646" d="M28-136.427c0,.021.084.3.19.591.169.422.4.549,1.224.654.549.063,1.287.19,1.646.253l.633.127-1.224,1.1c-1.14,1.055-1.2,1.14-.992,1.709l.232.591,1.625-1.625a7.275,7.275,0,0,1,2.638-1.963c.971-.317,1.118-.549.865-1.2-.106-.274-.253-.274-1.266.063-1.1.38-1.2.38-3.355.021A17.786,17.786,0,0,0,28-136.427Z" transform="translate(0 -176.288)"/>
      <path id="Path_14647" data-name="Path 14647" d="M318.866-124.557c-.169.506-.232.443.95,1.034l.95.485-.633.169c-.338.084-.992.211-1.414.274a1.31,1.31,0,0,0-1.14.8c-.274.549-.3.633-.042.528a11.73,11.73,0,0,1,1.456-.253l1.14-.148.021.675a2.017,2.017,0,0,0,3.334,1.287,6.429,6.429,0,0,0,1.351-2.659c-.148-.148-5.487-2.638-5.655-2.638C319.077-125,318.929-124.81,318.866-124.557Zm3.8,2.448c.865.422.886.464.3,1.2-.506.654-1.034.7-1.562.127-.317-.359-.338-.506-.105-1.055C321.588-122.573,321.673-122.594,322.664-122.109Z" transform="translate(-228.298 -185.309)"/>
      <path id="Path_14648" data-name="Path 14648" d="M45.963-117.861c0,.338.654,1.14.928,1.14.38,0,1.118.865,1.287,1.5a2.439,2.439,0,0,1-2.216,2.722,2.844,2.844,0,0,1-1.9-1.034,4.049,4.049,0,0,1-.211-1.329,2.694,2.694,0,0,0-.3-1.329c-.274-.38-.3-.38-.549.127a3.545,3.545,0,0,0,.127,2.954,3.288,3.288,0,0,0,5.613.19,3.433,3.433,0,0,0-.7-4.431C47.4-117.84,45.963-118.178,45.963-117.861Z" transform="translate(-11.633 -190.844)"/>
      <path id="Path_14649" data-name="Path 14649" d="M306.378-99.492a2.99,2.99,0,0,0-1.878,3.018,3.1,3.1,0,0,0,2.87,3.271,3.316,3.316,0,0,0,3.651-3.313,3.1,3.1,0,0,0-1.773-2.912A2.754,2.754,0,0,0,306.378-99.492Zm2.891,1.477a2.154,2.154,0,0,1-1.519,3.693,2.271,2.271,0,0,1-2-3.208c.443-.844.865-1.076,1.984-1.1A1.806,1.806,0,0,1,309.269-98.015Z" transform="translate(-218.153 -205.141)"/>
      <path id="Path_14650" data-name="Path 14650" d="M61.024-90.974c-2.026,1.815-2.237,2.068-2,2.427.127.211.338.4.443.4a10.732,10.732,0,0,0,1.709-1.372,15.649,15.649,0,0,1,1.646-1.372,14.007,14.007,0,0,1-.717,2.469l-.823,2.469.464.485.485.464,2.385-2.131,2.406-2.131-.443-.422-.422-.422L64.463-88.59a8.027,8.027,0,0,1-1.709,1.351,25.564,25.564,0,0,1,.823-2.511c.76-2.11.8-2.342.506-2.785-.19-.253-.443-.464-.57-.464A23.178,23.178,0,0,0,61.024-90.974Z" transform="translate(-24.414 -210.556)"/>
      <path id="Path_14651" data-name="Path 14651" d="M286.346-72.557c-.3.3-.211.654.823,3.608,1.118,3.123,1.182,3.25,1.562,2.912a1.22,1.22,0,0,0,.38-.633,18.66,18.66,0,0,0-.844-2.427,15.626,15.626,0,0,1-.8-2.195,17.252,17.252,0,0,1,2.258,1.2c2.174,1.266,2.174,1.266,2.6.844s.422-.422-1.857-1.625c-1.266-.675-2.617-1.393-3-1.6C286.62-72.958,286.746-72.937,286.346-72.557Z" transform="translate(-203.712 -226.463)"/>
      <path id="Path_14652" data-name="Path 14652" d="M86.62-71.6c-.19.317-.127.464.253.739,1.308.928,1.287.886.781,1.583l-.443.654-.844-.675c-.8-.633-.844-.654-1.2-.3-.338.359-.317.4.464,1.055.844.717.844.865.169,1.646-.274.338-.359.317-1.224-.38-.886-.739-.907-.739-1.14-.3a.813.813,0,0,0-.127.612,14.9,14.9,0,0,0,2.532,1.9c.063-.084,3.4-4.284,3.735-4.727C89.743-70.016,87.443-72,87.042-72,86.916-72,86.726-71.81,86.62-71.6Z" transform="translate(-43.617 -227.125)"/>
      <path id="Path_14653" data-name="Path 14653" d="M262.329-59.9a6.191,6.191,0,0,0-1.329.907,1.73,1.73,0,0,0,.274.485c.274.38.338.359,1.2-.19l.907-.57.38.485c.485.633.506.971.042,1.118a4.622,4.622,0,0,0-.886.528c-.422.317-.464.422-.211.8l.274.443.8-.506c1.013-.654,1.14-.633,1.54.127l.317.633-.928.57c-.865.549-.907.633-.675,1.055l.232.464,1.435-.865a6.265,6.265,0,0,0,1.414-.992,46.272,46.272,0,0,0-3.271-5.212A5.056,5.056,0,0,0,262.329-59.9Z" transform="translate(-183.832 -236.106)"/>
      <path id="Path_14654" data-name="Path 14654" d="M104.109-56.32c-1.54,2.49-1.625,2.68-1.266,2.954a2.065,2.065,0,0,0,.506.274,28.477,28.477,0,0,0,1.794-2.68c1.54-2.49,1.625-2.7,1.266-2.954A1.744,1.744,0,0,0,105.9-59,21.346,21.346,0,0,0,104.109-56.32Z" transform="translate(-58.91 -237.382)"/>
      <path id="Path_14655" data-name="Path 14655" d="M117.675-50.593a1.669,1.669,0,0,0-.8.485c-.106.338.8.675,1.414.506a1.792,1.792,0,0,1,2,.675,2.271,2.271,0,0,1-1.414,3.693c-.76.106-.865.042-1.857-.971-1.54-1.6-2.068-1.393-1.14.443a3.362,3.362,0,0,0,4.79.95,3.31,3.31,0,0,0-.549-5.634A2.6,2.6,0,0,0,117.675-50.593Z" transform="translate(-68.974 -243.826)"/>
      <path id="Path_14656" data-name="Path 14656" d="M238.384-50.238l-.464.253.8,2.047a11.194,11.194,0,0,1,.7,2.068c-.063,0-.992-.717-2.068-1.583a23,23,0,0,0-2.068-1.583,3.906,3.906,0,0,0-.654.19l-.528.211,1.14,2.912c1.013,2.638,1.161,2.912,1.6,2.849a1.176,1.176,0,0,0,.57-.148,11.239,11.239,0,0,0-.675-2.047,20.92,20.92,0,0,1-.76-2.131A12.347,12.347,0,0,1,238-45.68c1.9,1.562,2.068,1.667,2.638,1.456a1.626,1.626,0,0,0,.612-.274c0-.19-2.174-5.719-2.279-5.845C238.89-50.428,238.616-50.365,238.384-50.238Z" transform="translate(-162.608 -244.181)"/>
      <path id="Path_14657" data-name="Path 14657" d="M150.276-41.509c-.063.084-.443,1.435-.865,3-.781,2.849-.781,3.292,0,3.144.3-.042.549-.739,1.182-3,.422-1.625.781-2.975.739-3C151.12-41.53,150.36-41.635,150.276-41.509Z" transform="translate(-95.328 -251.138)"/>
      <path id="Path_14658" data-name="Path 14658" d="M162.942-37.367c-.063.338-.19.907-.253,1.266-.106.591-.169.633-1.1.57-.865-.042-.992.021-1.055.4-.063.4.063.485.886.591,1.013.169,1.118.317.844,1.329-.106.38-.253.464-.633.38-.274-.063-.76-.148-1.055-.211-.485-.106-.528-.063-.464.464.063.549.148.591,1.5.823a4.733,4.733,0,0,0,1.5.106A43.681,43.681,0,0,0,164-37.7a.571.571,0,0,0-.528-.3C163.174-38,163.027-37.81,162.942-37.367Z" transform="translate(-104.217 -253.95)"/>
      <path id="Path_14659" data-name="Path 14659" d="M204.015-37.852c-.633.063-.781.169-.7.4a2.213,2.213,0,0,1,.127.549c0,.127.464.169,1.118.127l1.1-.063.063.781c.063.8.063.8-.739.8-1.034,0-1.414.253-1.245.781.127.359.274.4,1.161.317,1.013-.084,1.013-.084,1.161.591a1.678,1.678,0,0,1,.021.8,4.193,4.193,0,0,1-1.161.211c-1.034.084-1.224.274-.865.844.127.232.549.253,1.815.148,1.6-.148,1.625-.169,1.519-.717-.063-.3-.232-1.709-.38-3.144L206.737-38l-.95.042C205.26-37.937,204.458-37.894,204.015-37.852Z" transform="translate(-138.306 -253.95)"/>
      <path id="Path_14660" data-name="Path 14660" d="M184.321-35.734v1.266h-1.055c-.992,0-1.055.042-1.055.528s.084.528.95.528h.95v1.688h-1.055c-.992,0-1.055.042-1.055.528,0,.528.021.528,1.688.528h1.688V-37h-.528C184.342-37,184.321-36.937,184.321-35.734Z" transform="translate(-121.503 -254.739)"/>
    </g>
  </g>
</svg>
