<svg xmlns="http://www.w3.org/2000/svg" width="80" height="80" viewBox="0 0 80 80">
  <g id="Group_5795" data-name="Group 5795" transform="translate(-671 -3186.602)">
    <rect id="icon3" width="80" height="79.602" transform="translate(671 3187)" fill="none"/>
    <g id="SKINCARE_RESPONSABLES_large" transform="translate(674.116 3186.602)">
      <path id="Path_14620" data-name="Path 14620" d="M69.2-346.346a1.358,1.358,0,0,0-.155.709,27.427,27.427,0,0,0,2.768,1.484,15.068,15.068,0,0,1,2.68,1.484c0,.089-.354.177-.8.177-2.481,0-8.461,1.728-11.849,3.455a35.3,35.3,0,0,0-19.534,29.811L42.2-307.5h1.44l.133-2.392a33.128,33.128,0,0,1,9.878-21.528A33.223,33.223,0,0,1,69.4-340.366a29.643,29.643,0,0,1,6.179-.886,34.631,34.631,0,0,1-2.5,2.791,34.583,34.583,0,0,0-2.569,2.857c0,.089.221.288.509.487.487.31.6.244,3.92-3.322,1.883-2.015,3.455-3.721,3.5-3.809a49.4,49.4,0,0,0-4.474-2.392l-4.5-2.259Z" transform="translate(-39.671 346.9)"/>
      <path id="Path_14621" data-name="Path 14621" d="M245.572-320.625a2.009,2.009,0,0,1-.111.616c-.089.2.354.44,1.373.792a33.457,33.457,0,0,1,12.137,7.547,33.063,33.063,0,0,1,9.967,18.46,38.5,38.5,0,0,1-.066,12.035,37.28,37.28,0,0,1-4.651,11.815c-1.661,2.6-5.138,6.535-5.138,5.853,0-.176.155-1.672.332-3.3s.332-3.036.332-3.146a2.346,2.346,0,0,0-1.351-.11c0,.044-.221,2.178-.487,4.731-.421,4.115-.443,4.687-.155,4.687.177,0,2.348-.418,4.828-.924,4.607-.968,4.828-1.056,4.275-1.914-.177-.286-.62-.242-3.056.264-1.55.33-2.924.594-3.056.594-.111,0,.2-.418.709-.946a38.75,38.75,0,0,0,7.242-11.771,35.131,35.131,0,0,0-4.939-33.07,36.229,36.229,0,0,0-16.367-12.057C245.771-321.021,245.572-321.043,245.572-320.625Z" transform="translate(-197.905 326.669)"/>
      <path id="Path_14622" data-name="Path 14622" d="M125.155-254.372a3.565,3.565,0,0,0-.709,1.794c-.177,1.44-.731,2.015-1.838,2.015a2.745,2.745,0,0,0-2.569,1.506c-.354.509-.8.93-1.019.93a5.58,5.58,0,0,1-1.705-.886,4.855,4.855,0,0,0-1.9-.886,1.559,1.559,0,0,0-1.506,1.44,4.159,4.159,0,0,0,.443,1.44,4.136,4.136,0,0,1,.443,1.218c0,.532-1.75.421-3.1-.2a2.543,2.543,0,0,0-2.392-.221,15.347,15.347,0,0,1-2.038.31c-1.573,0-2.237,1.107-1.772,2.879.354,1.351,1,1.794,3.61,2.613,2.879.864,3.876,1.595,5.426,3.92,1.528,2.326,1.683,2.9,1.373,5.714a12.969,12.969,0,0,1-1.041,4.673c-.465.908-.221,1.506.975,2.281,2.215,1.417,2.724,1.573,5.936,1.838a21.761,21.761,0,0,1,3.832.664c2.791.842,4.142.332,4.718-1.838a5.179,5.179,0,0,1,.465-1.218c.377-.443,3.234-.332,4.961.2a6.317,6.317,0,0,0,6.733-1.728c1.174-1.262,1.152-1.9-.155-2.768-1.13-.775-1.262-1.307-.864-3.566.443-2.5.066-3.809-1.307-4.452l-.775-.377.975-1.019c1.484-1.55,4.1-6.334,4.12-7.508,0-.864-.554-1.2-3.544-2.193a47.174,47.174,0,0,1-10.919-5.338C126.994-255.192,126.041-255.435,125.155-254.372Zm4.3,2.171a48.143,48.143,0,0,0,10.875,5.316c1.971.664,3.034,1.13,3.034,1.329,0,1.041-2.591,5.515-4.23,7.287a2.66,2.66,0,0,0-.819,1.373c.044.221.487.62,1,.908,1.307.709,1.506,1.462,1.085,3.92-.31,1.728-.31,1.993,0,2.791a3.255,3.255,0,0,0,1.107,1.329c.421.244.753.554.753.664,0,.775-2.857,2.414-4.186,2.414a12.077,12.077,0,0,1-2.436-.465,9.553,9.553,0,0,0-3.366-.377c-1.993.089-2.5.4-2.879,1.816-.532,2.038-1.107,2.281-3.721,1.462a22.381,22.381,0,0,0-3.876-.664c-2.946-.244-3.544-.421-4.939-1.351-.576-.4-1.085-.731-1.107-.753a6.19,6.19,0,0,1,.4-1.218,20.708,20.708,0,0,0,.753-3.832c.421-3.433.244-4.208-1.44-6.8-1.838-2.791-3.123-3.654-7.132-4.762-1.019-.266-1.351-.487-1.617-1.019a2.49,2.49,0,0,1-.288-1.262c.066-.532.177-.62,1.174-.731a18.451,18.451,0,0,0,1.971-.377c.753-.221,1-.177,2.015.288,1.971.952,4.142.62,4.275-.62a4.631,4.631,0,0,0-.465-1.794c-.8-1.728-.31-1.971,1.462-.709a6.5,6.5,0,0,0,1.705.908,2.258,2.258,0,0,0,2.348-1.329c.421-.8.576-.864,2.171-1.085a2.165,2.165,0,0,0,2.126-1.683c.111-.487.332-1.285.443-1.772C126-254.283,126.529-254.173,129.452-252.2Z" transform="translate(-88.829 275.147)"/>
      <path id="Path_14623" data-name="Path 14623" d="M32.446-138.273a34.044,34.044,0,0,0-1.661,4.629,1.363,1.363,0,0,0,.664.221c.465.066.642-.221,1.75-2.99l1.24-3.056.8,2.392A35.278,35.278,0,0,0,60.264-114.11a35.235,35.235,0,0,0,19.335-.819A29.916,29.916,0,0,0,85.38-117.5c.089-.089,0-.377-.221-.642l-.4-.465-1.816.864a33.559,33.559,0,0,1-29.922-.554,34.447,34.447,0,0,1-16.545-19.335,9.791,9.791,0,0,1-.509-1.927,19.837,19.837,0,0,1,2.5,1.9,14.977,14.977,0,0,0,2.636,1.9,1.533,1.533,0,0,0,.487-.509c.266-.377-.022-.664-3.344-3.411-1.993-1.639-3.7-3.012-3.809-3.034A31.411,31.411,0,0,0,32.446-138.273Z" transform="translate(-30.781 187.531)"/>
    </g>
  </g>
</svg>
