<svg xmlns="http://www.w3.org/2000/svg" width="80" height="80" viewBox="0 0 80 80">
  <g id="Group_5801" data-name="Group 5801" transform="translate(-1619 -5108)">
    <g id="Group_5800" data-name="Group 5800">
      <rect id="icon10" width="80" height="80" transform="translate(1619 5108)" fill="none"/>
      <path id="iran-svgrepo-com" d="M58.127,60.031l-6.942-.553-8.119-1.246-1.356-4.657-1.547-.836-5.5,2.946L30,54.743,21.69,49.769l-5.176-9.383-5.108.87L7.57,35.94l-.114-4.45L3.3,27.915l-2-3.376.194-5.7L2.86,17.323-.717,11.3-2.46-1.026,2.08-2.2,4.053.934,6.4,1.4l5.2-3.6L15.789,7.44,24.175,11.6l4.888-.8.64-2.111,3.133-.851L34.881,5.46,39.9,4.142l15.674,6.295,1.361,5.428-2.231,6.3L57.6,32.239,60.69,35.1l-3.183,4.451,2.648,3.512L64.7,46.112l.648,6.919-3.4,2.031-.653,4.3Zm-13.222-3.9,6.552,1.008,6.517.516,1.244-.262.575-3.786,3.077-1.839-.406-4.331-3.949-2.652-3.926-5.207,2.982-4.169L55.523,33.52,52.24,22.089l2.246-6.34-.9-3.576L39.75,6.614l-3.564.935L34.149,9.914l-2.572.7-.687,2.267-7.081,1.159L13.974,9.166l-3.39-7.806L6.919,3.9,2.6,3.045,1.005.508.163.726,1.545,10.5l4.223,7.111-1.956,2.16-.141,4.156,1.456,2.453,4.652,4L9.9,35.153l2.553,3.539,5.31-.9,5.677,10.289,7.424,4.441,3.431.695,5.871-3.144,3.525,1.9Z" transform="translate(1629.007 5119.927)"/>
    </g>
  </g>
</svg>
