<svg xmlns="http://www.w3.org/2000/svg" width="80" height="80" viewBox="0 0 80 80">
  <g id="Group_5797" data-name="Group 5797" transform="translate(-1150 -5108)">
    <rect id="icon9" width="80" height="80" transform="translate(1150 5108)" fill="none"/>
    <g id="produits-offerts_large" transform="translate(1161.653 5598.844)">
      <path id="Path_15248" data-name="Path 15248" d="M13.128-479.612c-3.465.63-5.7,3.112-5.7,6.363a6.526,6.526,0,0,0,.265,1.89c.353,1.2.416,1.726.214,1.978-.151.2-6.25,3-6.527,3s-1.134.932-1.26,1.361C.05-464.719,0-459.036,0-448.7c0,17.06-.025,16.33.643,16.922.227.2,18.661,8.48,27,12.121a2.64,2.64,0,0,0,1.638.365c.491-.05,3.956-1.537,14.188-6.086,7.447-3.3,13.734-6.149,13.973-6.325.819-.6.769.428.769-17.161,0-15.611,0-16.027-.239-16.493a2.012,2.012,0,0,0-.542-.668c-.164-.1-1.814-.857-3.679-1.688a17.942,17.942,0,0,1-3.578-1.789c-.164-.265-.151-.353.2-1.134a5.956,5.956,0,0,0-.529-6c-1.852-2.772-5.582-3.793-9.3-2.52a13.454,13.454,0,0,0-3.591,1.953c-1.726,1.247-1.991,1.273-3.679.315-3.1-1.764-5.62-1.7-8.757.227a2,2,0,0,1-2,.3c-.151-.076-.781-.5-1.411-.958a13.2,13.2,0,0,0-3.994-2.041A11.622,11.622,0,0,0,13.128-479.612Zm3.062,2.583c3.377.869,7.421,4.536,10.093,9.135.92,1.575,1.008,1.8.743,2.016-.239.2-2.192.113-4.536-.189-7.245-.932-12.02-3.364-12.663-6.439a4.079,4.079,0,0,1,3.087-4.536A7.97,7.97,0,0,1,16.19-477.029Zm29.761.252a4.01,4.01,0,0,1,2.482,3.654,3.841,3.841,0,0,1-1.373,2.911c-1.613,1.613-3.919,2.671-7.623,3.5-2.747.6-7.636,1.184-8.089.945-.4-.214-.252-.743.617-2.192a22,22,0,0,1,8.19-8.354,6.153,6.153,0,0,1,3.692-.869A4.414,4.414,0,0,1,45.952-476.777Zm-15.4,1.386a6.17,6.17,0,0,1,2.281,1.159c.378.34.328.479-.617,1.613a33.145,33.145,0,0,0-2.684,3.969,2.411,2.411,0,0,1-.416.63,2.255,2.255,0,0,1-.391-.592,43.394,43.394,0,0,0-2.873-4.309,3.956,3.956,0,0,1-.655-.958c0-.214.479-.617,1.134-.958A5.86,5.86,0,0,1,30.554-475.391Zm-19.026,8.568a23.747,23.747,0,0,0,7.8,2.722c2.054.4,2.432.567,1.94.819-.945.491-6.426,2.822-6.64,2.822-.139,0-2.318-.92-4.826-2.029s-4.763-2.117-5-2.218-.391-.2-.353-.239c.126-.126,5.582-2.558,5.746-2.57A7.394,7.394,0,0,1,11.528-466.823Zm39.539.617a22.1,22.1,0,0,1,2.633,1.273c-.013.139-9.425,4.347-9.916,4.435-.3.05-1.109-.252-3.591-1.348-1.764-.769-3.251-1.449-3.314-1.5-.214-.214.428-.491,1.613-.706a24.815,24.815,0,0,0,7.925-2.608c1.2-.731,1.487-.857,1.777-.769C48.333-467.39,49.631-466.836,51.067-466.206Zm-20,3.238a84.183,84.183,0,0,1,9.236,3.944c.038.164-10.786,4.99-11.189,4.99-.378,0-11.3-4.838-11.264-4.99a92.237,92.237,0,0,1,8.984-3.843A7.057,7.057,0,0,1,31.071-462.967Zm-24.394,1.84c1.008.454,2.482,1.084,3.276,1.386,1.852.731,2.041.832,2.57,1.373.882.907.844.113.806,15.4-.038,14.868,0,14.125-.668,13.936-.139-.038-1.814-.769-3.717-1.625s-4.032-1.8-4.712-2.1a4.423,4.423,0,0,1-1.512-.895l-.265-.353.038-14.263c.025-7.85.063-14.364.1-14.477.05-.176.2-.139,1.159.3C4.359-462.174,5.669-461.581,6.677-461.128Zm48.951-1.386c.038.126.076,6.6.076,14.4,0,13.684-.013,14.175-.239,14.49a7.716,7.716,0,0,1-2.054,1.109c-1,.428-3.112,1.386-4.712,2.1a23.669,23.669,0,0,1-3.251,1.323.427.427,0,0,1-.466-.328c-.076-.2-.126-5.481-.126-14.175,0-11.705.025-13.923.176-14.289.214-.5.277-.542,3.6-1.991,1.348-.592,3.339-1.474,4.41-1.966C55.1-462.766,55.477-462.867,55.629-462.514ZM19.58-455.433c1.676.756,3.944,1.751,5.053,2.218s2.192.958,2.407,1.084c.869.529.819-.4.819,15.133-.013,13.936-.013,14.024-.265,14.238-.34.277-.441.239-3.4-1.121-1.348-.617-3.591-1.6-4.964-2.192-2.835-1.2-3.289-1.512-3.415-2.407-.038-.3-.063-6.7-.038-14.225.038-14.427.025-14.1.58-14.1C16.455-456.806,17.916-456.189,19.58-455.433Zm22.756-1.046c.076.2.126,5.456.126,14.1,0,15.158.038,14.49-.743,15.057-.189.126-1.3.643-2.444,1.121s-3.364,1.474-4.9,2.167c-3.415,1.55-3.44,1.562-3.767,1.235-.239-.239-.239-.542-.239-14.289,0-15.674-.063-14.578.882-15.057.277-.139,1.537-.706,2.8-1.247s3.5-1.537,4.952-2.205a24.123,24.123,0,0,1,2.936-1.21A.408.408,0,0,1,42.335-456.478Z" transform="translate(0 0)"/>
    </g>
  </g>
</svg>
