<svg xmlns="http://www.w3.org/2000/svg" width="80" height="80" viewBox="0 0 80 80">
  <g id="Group_5799" data-name="Group 5799" transform="translate(-210 -5108)">
    <rect id="icon6" width="80" height="80" transform="translate(210 5108)" fill="none"/>
    <g id="paiement-securise_large" transform="translate(145.008 5594.137)">
      <path id="Path_15255" data-name="Path 15255" d="M100.921-479.617a15.241,15.241,0,0,0-8.561,4.569,14.779,14.779,0,0,0-4.1,7.252l-.34,1.27-.052,7.1-.039,7.108H86.639a8.451,8.451,0,0,0-1.689.144,3.144,3.144,0,0,0-1.689,1.44c-.262.5-.262.8-.262,15.225,0,14.583,0,14.74.275,15.447a5.16,5.16,0,0,0,2.448,2.592l.877.432h33.905l.877-.432a5.16,5.16,0,0,0,2.448-2.592c.275-.72.275-.851.275-15.447,0-14.413,0-14.727-.262-15.225a3.09,3.09,0,0,0-1.689-1.44,8.451,8.451,0,0,0-1.689-.144h-1.191l-.039-7.108-.052-7.1-.34-1.27a14.605,14.605,0,0,0-4.228-7.37,14.44,14.44,0,0,0-7.37-4.215A18.706,18.706,0,0,0,100.921-479.617Zm4.412,1.911a13.776,13.776,0,0,1,11.821,11.821c.092.6.144,3.535.144,7.292v6.271h-3.914l-.039-6.781c-.052-7.475-.039-7.292-.943-9.229a9.518,9.518,0,0,0-4.464-4.543,8.27,8.27,0,0,0-4.385-.982,8.27,8.27,0,0,0-4.385.982,9.518,9.518,0,0,0-4.464,4.543c-.9,1.938-.89,1.754-.943,9.229l-.039,6.781H89.807v-6.271c0-6.624.052-7.527.6-9.412A13.791,13.791,0,0,1,105.333-477.706Zm.668,6.179a7.107,7.107,0,0,1,3.063,1.911,7.194,7.194,0,0,1,1.924,3.063l.353.943.039,6.637.039,6.65H95.685l.039-6.65.039-6.637.353-.943a7.194,7.194,0,0,1,1.924-3.063,7.818,7.818,0,0,1,4.137-2.225A9.2,9.2,0,0,1,106-471.527Zm15.84,21.482.367.314v14.191c0,11.337-.039,14.269-.17,14.662a3.4,3.4,0,0,1-.694,1.008c-.995.995.157.929-17.791.929s-16.8.065-17.791-.929a3.4,3.4,0,0,1-.694-1.008c-.131-.393-.17-3.325-.17-14.662V-449.73l.367-.314.367-.314h35.843Z"/>
      <path id="Path_15256" data-name="Path 15256" d="M199.6-202.221a5.9,5.9,0,0,0-3.862,3,5.878,5.878,0,0,0,.707,6.559l.563.694v2.369c0,2.605.092,3.129.681,3.849.733.877,1.244,1.047,3.247,1.047s2.513-.157,3.247-1.047c.589-.72.681-1.244.681-3.849v-2.369l.563-.694a5.888,5.888,0,0,0-1.231-8.719A5.955,5.955,0,0,0,199.6-202.221Zm3.194,2.3a3.853,3.853,0,0,1,1.99,3.43,3.7,3.7,0,0,1-1.217,2.854l-.668.707v2.762c0,2.736,0,2.762-.314,3.129s-.353.367-1.649.367-1.335-.013-1.649-.367-.314-.393-.314-3.129v-2.762l-.668-.707a3.839,3.839,0,0,1-.524-5.105,3.476,3.476,0,0,1,3.364-1.571A2.914,2.914,0,0,1,202.8-199.917Z" transform="translate(-97.387 -241.107)"/>
    </g>
  </g>
</svg>
