<svg xmlns="http://www.w3.org/2000/svg" width="80" height="80" viewBox="0 0 80 80">
  <g id="Group_5798" data-name="Group 5798" transform="translate(-665 -5108)">
    <rect id="icon8" width="80" height="80" transform="translate(665 5108)" fill="none"/>
    <g id="livraison-offerte_large" transform="translate(644 5431.54)">
      <path id="Path_15249" data-name="Path 15249" d="M121.819-308.051c-7.8,3.769-14.3,6.979-14.5,7.129-.28.237-.323,2.24-.323,17.317,0,9.369.086,17.145.172,17.274.215.345,28.926,14.172,29.357,14.151.345-.043,28.13-13.4,28.97-13.957l.517-.323v-16.972c0-13.246-.065-17.059-.258-17.339-.366-.452-28.754-14.151-29.336-14.129C136.163-314.9,129.594-311.82,121.819-308.051Zm27.72,1.335c7.172,3.468,13.031,6.354,13.031,6.44a37.313,37.313,0,0,1-3.662,1.9l-3.662,1.745L145.188-301.5c-5.557-2.671-11.48-5.535-13.2-6.354l-3.1-1.486,3.64-1.809c2.025-.991,3.726-1.809,3.834-1.809C136.443-312.983,142.367-310.162,149.539-306.715Zm-9.692,4.76c7.172,3.446,13.031,6.332,13.009,6.4a19.45,19.45,0,0,1-2.563,1.357l-2.563,1.228L134.7-299.263c-7.172-3.468-13.052-6.332-13.052-6.4a47.418,47.418,0,0,1,5.019-2.563C126.751-308.245,132.7-305.423,139.847-301.955Zm-6.5,4.071,13.5,6.548v5.708c0,5.9.043,6.246.883,6.246A65.04,65.04,0,0,0,155.311-283c.323-.3.366-.883.388-6.052v-5.729l2.2-1.055c1.206-.582,3.1-1.465,4.2-1.982l1.982-.926v31.339l-5.1,2.455c-7.5,3.6-11.889,5.708-16.951,8.163-2.477,1.185-4.545,2.175-4.588,2.175s-.043-7.043-.022-15.659l.065-15.637,3.4-1.7c3.209-1.594,3.4-1.723,3.339-2.262-.129-1.185-.56-1.12-4.265.625l-3.446,1.658-1.529-.689c-1.68-.732-2.2-.668-2.3.345-.065.517.086.646,1.335,1.271l1.422.689v31.339l-3.7-1.788c-2.046-.969-8.012-3.855-13.246-6.375l-9.542-4.588v-15.7c0-14.883.022-15.68.388-15.486.194.108,4.825,2.348,10.274,4.975,8.529,4.114,9.972,4.739,10.382,4.545a.89.89,0,0,0,.022-1.594c-.28-.172-4.825-2.369-10.123-4.911s-9.628-4.652-9.628-4.717a69.705,69.705,0,0,1,9.132-4.222C119.622-304.454,125.889-301.481,133.342-297.885Zm20.4,8.874v4.8l-2.3,1.12c-1.292.625-2.391,1.12-2.477,1.12a30.824,30.824,0,0,1-.172-4.739v-4.739l2.434-1.163c1.314-.646,2.434-1.185,2.477-1.185C153.717-293.814,153.739-291.66,153.739-289.011Z" transform="translate(-67.477)"/>
      <path id="Path_15250" data-name="Path 15250" d="M122.331-140.628a1.253,1.253,0,0,0-.172.818c.043.409.646.775,3.188,2.046,1.723.84,3.726,1.809,4.48,2.132l1.357.582.474-.452c.366-.366.409-.56.258-.862a68.443,68.443,0,0,0-8.96-4.545A.925.925,0,0,0,122.331-140.628Z" transform="translate(-79.362 -136.515)"/>
      <path id="Path_15251" data-name="Path 15251" d="M122.441-120.72a.819.819,0,0,0-.3.818c.043.409.5.732,2.218,1.637,2.326,1.206,3.188,1.4,3.554.732.388-.754-.043-1.142-2.52-2.3-1.335-.646-2.477-1.163-2.5-1.163A2.269,2.269,0,0,0,122.441-120.72Z" transform="translate(-79.342 -152.137)"/>
      <path id="Path_15252" data-name="Path 15252" d="M32.331-280.536c-.345.883.108.926,10.619.926,5.514,0,10.166-.086,10.317-.194a.58.58,0,0,0,.215-.582c-.065-.388-.5-.409-10.554-.474C33.171-280.9,32.46-280.881,32.331-280.536Z" transform="translate(-8.833 -26.696)"/>
      <path id="Path_15253" data-name="Path 15253" d="M21-250.462v.538l7.5-.043c7.3-.065,7.474-.065,7.474-.5s-.172-.431-7.474-.5L21-251Z" transform="translate(0 -50.137)"/>
      <path id="Path_15254" data-name="Path 15254" d="M49.965-220.526c.065.5.065.5,5,.56,5.019.043,5.428,0,5.148-.754-.086-.215-1.142-.28-5.169-.28H49.9Z" transform="translate(-22.675 -73.675)"/>
    </g>
  </g>
</svg>
