<svg id="gb" xmlns="http://www.w3.org/2000/svg" width="36" height="22" viewBox="0 0 36 22">
  <path id="Path_14587" data-name="Path 14587" d="M0,0H36V21.609H0Z" transform="translate(0 0.391)" fill="#012169"/>
  <path id="Path_14588" data-name="Path 14588" d="M4.219,0,17.944,8.148,31.613,0H36V2.791L22.5,10.849,36,18.863v2.746H31.5L18,13.55,4.556,21.609H0v-2.7l13.444-8.013L0,2.881V0Z" transform="translate(0 0.391)" fill="#fff"/>
  <path id="Path_14589" data-name="Path 14589" d="M23.85,12.65,36,19.808v1.8L20.756,12.65Zm-10.35.9.337,1.576-10.8,6.483H0ZM36,0V.135L21.994,8.6l.113-1.981L33.188,0ZM0,0,13.444,7.923H10.069L0,1.891Z" transform="translate(0 0.391)" fill="#c8102e"/>
  <path id="Path_14590" data-name="Path 14590" d="M13.556,0V21.609h9V0ZM0,7.2v7.2H36V7.2Z" transform="translate(0 0.391)" fill="#fff"/>
  <path id="Path_14591" data-name="Path 14591" d="M0,8.688V13.01H36V8.688ZM15.356,0V21.609h5.4V0Z" transform="translate(0 0.391)" fill="#c8102e"/>
  <rect id="Rectangle_1580" data-name="Rectangle 1580" width="35.921" height="22" fill="rgba(255,255,255,0.2)"/>
</svg>
