<svg xmlns="http://www.w3.org/2000/svg" width="80" height="80" viewBox="0 0 80 80">
  <g id="Group_5796" data-name="Group 5796" transform="translate(-199 -3187)">
    <rect id="icon4" width="80" height="80" transform="translate(199 3187)" fill="none"/>
    <g id="DES_SOINS_INSPIRES_PAR_LA_PEAU_large" transform="translate(180.43 3541.131)">
      <path id="Path_15234" data-name="Path 15234" d="M33.986-345.337a16.265,16.265,0,0,0-7.349,9.6c-.438,1.523-.438,1.561-.5,20.182-.038,12.909,0,19.154.152,20.277a15.833,15.833,0,0,0,4.3,9.063c1.18,1.18,4.132,3.313,4.589,3.313.628,0,.1-.628-1.333-1.58a14.928,14.928,0,0,1-6.626-9.52c-.362-1.809-.381-2.513-.324-21.039l.057-19.173.533-1.675a14.815,14.815,0,0,1,7.045-8.93c.5-.286.895-.647.895-.819C35.433-346.08,35.033-345.984,33.986-345.337Z" transform="translate(0 0)"/>
      <path id="Path_15235" data-name="Path 15235" d="M315-344.626a5.278,5.278,0,0,0,1.58,1.314,14.928,14.928,0,0,1,6.626,9.52c.362,1.809.381,2.513.324,21.039l-.057,19.173-.533,1.675a14.815,14.815,0,0,1-7.045,8.93c-.5.286-.895.647-.895.819,0,.438.4.343,1.447-.3a16.264,16.264,0,0,0,7.349-9.6c.438-1.523.438-1.561.5-20.182.038-12.909,0-19.154-.152-20.277a15.545,15.545,0,0,0-7.064-11.309C315.438-344.931,315-345.083,315-344.626Z" transform="translate(-233.872 -0.844)"/>
      <path id="Path_15236" data-name="Path 15236" d="M84.941-307.515a3.038,3.038,0,0,0-1.314,5.2,10.189,10.189,0,0,0,2.075,1.085,8.956,8.956,0,0,1,1.847.933,1.19,1.19,0,0,1-.076,1.58,5.908,5.908,0,0,1-3.5-.038,5.205,5.205,0,0,0-.857-.247,6.389,6.389,0,0,0-.552,1.885c.381.628,4.132.971,5.636.514a3.142,3.142,0,0,0,2.17-3.656c-.19-1.276-.971-2-3.122-2.875a6.423,6.423,0,0,1-1.961-1.085c-.647-1.2,1.123-1.885,3.065-1.2a5.212,5.212,0,0,0,.857.247c.019-.038.19-.438.362-.914.3-.781.3-.857.019-1.066A6.816,6.816,0,0,0,84.941-307.515Z" transform="translate(-45.681 -30.892)"/>
      <path id="Path_15237" data-name="Path 15237" d="M143.56-305.5c-1.066,2.323-3.56,8.758-3.56,9.2a2.715,2.715,0,0,0,1.219.152h1.219l.381-1.1.362-1.085h4.3l.381,1.085.362,1.1h2.608l-.666-1.866c-1.009-2.761-2.228-5.845-2.989-7.521L146.492-307h-2.247Zm2.608,3.218c.381.99.685,1.828.685,1.866a8.218,8.218,0,0,1-1.542.076c-1.161,0-1.523-.057-1.466-.248.857-2.4,1.409-3.713,1.523-3.6A15.132,15.132,0,0,1,146.169-302.278Z" transform="translate(-92.191 -31.502)"/>
      <path id="Path_15238" data-name="Path 15238" d="M203.933-306.567c.228.914,2,5.56,3.046,7.958l.99,2.285,1.238.057,1.238.057,1.142-2.723c1.047-2.456,3.1-7.806,3.1-8.073a3.91,3.91,0,0,0-1.276-.038l-1.295.057-.628,1.809c-.343.99-.971,2.8-1.409,4l-.8,2.17-.267-.647c-.152-.362-.8-2.17-1.447-4l-1.161-3.332-1.314-.057L203.8-307.1Z" transform="translate(-143.844 -31.421)"/>
      <path id="Path_15239" data-name="Path 15239" d="M273-301.574v5.426h7.616v-1.885l-2.513-.057-2.532-.057-.057-1.295-.057-1.276h4.4v-2.094h-4.379v-2.094h4.969l-.057-1.009-.057-.99-3.656-.057L273-307Z" transform="translate(-199.869 -31.502)"/>
      <path id="Path_15240" data-name="Path 15240" d="M77.866-208.522a5.735,5.735,0,0,0-3.351,6.607,4.871,4.871,0,0,0,2.7,3.884,5.542,5.542,0,0,0,7.6-2.456,7.565,7.565,0,0,0,0-5.179,5.57,5.57,0,0,0-2.4-2.627A7.713,7.713,0,0,0,77.866-208.522Zm3.313,2.151c1.066.571,1.561,1.714,1.485,3.5-.057,1.561-.324,2.132-1.352,2.894a2.98,2.98,0,0,1-2.932,0c-1.1-.819-1.295-1.295-1.295-3.122,0-1.409.057-1.771.4-2.228A2.8,2.8,0,0,1,81.178-206.371Z" transform="translate(-39.082 -111.035)"/>
      <path id="Path_15241" data-name="Path 15241" d="M207.618-208.521c-.419.057-.952.133-1.18.171l-.438.1v10.662h2.475v-4h.552c.628,0,1.009.438,2.285,2.608l.819,1.39h1.314a4.439,4.439,0,0,0,1.314-.1,15.771,15.771,0,0,0-1.58-2.837c-.895-1.409-.933-1.5-.59-1.695a3.273,3.273,0,0,0,.666-5.084,4.175,4.175,0,0,0-1.466-.895A15.523,15.523,0,0,0,207.618-208.521Zm3.427,2.437a1.225,1.225,0,0,1,.476,1.637c-.267.628-1.009.952-2.209.952h-.838v-3.1l1.066.114A4.554,4.554,0,0,1,211.045-206.084Z" transform="translate(-145.625 -111.208)"/>
      <path id="Path_15242" data-name="Path 15242" d="M144-204.478c0,4.379.171,5.255,1.219,6.3a4.054,4.054,0,0,0,3.256,1.219,4.321,4.321,0,0,0,3.161-1.085c1.123-1.028,1.314-1.885,1.314-6.283V-208h-2.475v3.713c0,4.055-.114,4.589-1.047,5.007a1.894,1.894,0,0,1-2.666-.819c-.209-.5-.286-1.542-.286-4.284V-208H144Z" transform="translate(-95.43 -111.653)"/>
      <path id="Path_15243" data-name="Path 15243" d="M85.184-110.351a3.216,3.216,0,0,0-2.856,2.551c-.267,1.714.609,3.008,2.551,3.732,1.828.685,2.361.99,2.551,1.466.419,1.085-.914,1.752-2.78,1.409a8.025,8.025,0,0,1-1.447-.4c-.476-.267-.419-.3-.8.819l-.3.895.533.286a8.658,8.658,0,0,0,4.227.5c1.98-.324,2.989-1.2,3.161-2.742.228-1.885-.647-3.008-3.122-3.96a5.029,5.029,0,0,1-1.9-1.047c-.743-1.142.647-1.828,2.627-1.314.628.152,1.18.286,1.219.286a11.915,11.915,0,0,0,.666-1.828c0-.019-.324-.152-.7-.324A8.05,8.05,0,0,0,85.184-110.351Z" transform="translate(-45.315 -190.644)"/>
      <path id="Path_15244" data-name="Path 15244" d="M145-103.574v5.426h2.475v-4.646l1.066,1.028a27.18,27.18,0,0,1,2.018,2.323l.952,1.295h1.314c.723,0,1.314-.057,1.314-.152,0-.5-2.761-4.036-3.979-5.1l-.666-.59,1.733-1.885c.952-1.028,1.961-2.171,2.247-2.513l.514-.609H151.15l-1.847,2-1.828,2v-4H145Z" transform="translate(-96.24 -191.804)"/>
      <path id="Path_15245" data-name="Path 15245" d="M206-103.574v5.445l1.2-.057,1.18-.057.057-5.388.038-5.369H206Z" transform="translate(-145.625 -191.804)"/>
      <path id="Path_15246" data-name="Path 15246" d="M237-103.574v5.426h2.285v-3.579l.019-3.56.666.762a67.845,67.845,0,0,1,3.922,5.788c.3.533.4.59,1.295.59h.952V-109h-2.285l-.019,3.18c0,3.065-.019,3.18-.324,2.723-1.2-1.733-2.57-3.579-3.446-4.646L239.018-109H237Z" transform="translate(-170.723 -191.804)"/>
      <path id="Path_15247" data-name="Path 15247" d="M300.32-65.619a1.423,1.423,0,0,0,.114,2.075,1.279,1.279,0,0,0,1.885-.076,1.35,1.35,0,0,0-.952-2.38A1.525,1.525,0,0,0,300.32-65.619Z" transform="translate(-221.668 -226.617)"/>
    </g>
  </g>
</svg>
