<svg xmlns="http://www.w3.org/2000/svg" width="58" height="58" viewBox="0 0 58 58">
  <g id="Group_5710" data-name="Group 5710" transform="translate(-24 -269)">
    <circle id="Ellipse_109" data-name="Ellipse 109" cx="29" cy="29" r="29" transform="translate(24 269)" fill="#efe3d8"/>
    <path id="present" d="M13,16V30H7a4,4,0,0,1-4-4V16Zm4,0H27V26a4,4,0,0,1-4,4H17ZM13,8v6H2.5A1.5,1.5,0,0,1,1,12.5v-3A1.5,1.5,0,0,1,2.5,8Zm4,0H27.5A1.5,1.5,0,0,1,29,9.5v3A1.5,1.5,0,0,1,27.5,14H17ZM10,0h0A3.541,3.541,0,0,1,13.5,2.964L14,6H10a3,3,0,1,1,0-6ZM20,0a3,3,0,1,1,0,6H16l.5-3.036A3.541,3.541,0,0,1,20,0Z" transform="translate(38 283)"/>
  </g>
</svg>
