<?xml version="1.0" standalone="no"?>
<!DOCTYPE svg PUBLIC "-//W3C//DTD SVG 20010904//EN"
 "http://www.w3.org/TR/2001/REC-SVG-20010904/DTD/svg10.dtd">
<svg version="1.0" xmlns="http://www.w3.org/2000/svg"
 width="1200.000000pt" height="628.000000pt" viewBox="0 0 1200.000000 628.000000"
 preserveAspectRatio="xMidYMid meet">

<g transform="translate(0.000000,628.000000) scale(0.100000,-0.100000)"
fill="#000000" stroke="none">
<path d="M6670 3590 l0 -2440 200 0 200 0 0 2440 0 2440 -200 0 -200 0 0
-2440z"/>
<path d="M9112 5370 c-81 -33 -132 -111 -132 -204 0 -193 228 -287 363 -150
46 46 61 83 61 149 0 94 -46 166 -126 200 -41 16 -130 19 -166 5z"/>
<path d="M544 4315 c-223 -48 -378 -195 -441 -416 -15 -56 -18 -106 -18 -394
0 -375 4 -410 69 -539 23 -46 155 -238 305 -445 366 -505 377 -524 407 -673
13 -66 15 -127 11 -361 -3 -155 -8 -294 -12 -309 l-7 -28 204 0 205 0 7 53
c10 90 7 726 -5 796 -19 113 -74 205 -389 650 -309 437 -372 540 -391 646 -14
78 -6 526 10 578 27 83 95 129 191 129 94 0 150 -35 187 -117 15 -35 18 -78
21 -347 l4 -308 184 0 184 0 0 328 c0 362 -6 409 -61 513 -64 119 -195 214
-338 244 -87 18 -244 18 -327 0z"/>
<path d="M2710 4315 c-285 -60 -434 -235 -470 -550 -14 -126 -9 -2522 6 -2575
l10 -35 207 -3 c114 -1 207 -1 207 0 0 2 -8 26 -17 53 -16 46 -18 145 -21
1245 -2 757 1 1225 7 1277 23 188 105 275 260 275 84 0 142 -23 186 -74 75
-88 70 14 73 -1388 2 -815 -1 -1271 -8 -1300 -5 -25 -12 -55 -16 -67 l-6 -23
205 0 c185 0 206 2 213 18 5 9 10 597 12 1307 3 1446 5 1385 -69 1544 -66 142
-187 240 -354 286 -82 23 -337 29 -425 10z"/>
<path d="M4962 4311 c-225 -56 -384 -222 -427 -446 -21 -108 -21 -644 -1 -742
30 -139 46 -165 409 -666 266 -368 336 -483 357 -583 8 -36 10 -168 8 -389
l-3 -335 200 2 200 3 0 445 0 445 -24 55 c-35 79 -76 141 -373 560 -291 413
-350 506 -373 595 -18 70 -21 520 -4 595 22 98 88 151 188 151 72 1 96 -6 137
-37 66 -49 68 -65 74 -414 l5 -315 185 0 185 0 3 312 c2 242 -1 329 -12 382
-54 257 -256 402 -555 400 -66 0 -134 -7 -179 -18z"/>
<path d="M11103 4311 c-34 -10 -87 -33 -118 -52 -54 -32 -161 -136 -197 -189
-16 -24 -17 -20 -17 98 l-1 122 -190 0 -190 0 0 -1570 0 -1570 200 0 200 0 0
1263 c0 1405 -3 1332 68 1437 73 108 217 146 330 88 57 -29 104 -100 121 -184
8 -41 11 -414 11 -1331 l0 -1273 198 2 197 3 3 1320 c2 857 -1 1354 -8 1418
-21 206 -122 349 -287 409 -81 30 -236 34 -320 9z"/>
<path d="M7633 4013 c-62 -153 -191 -474 -287 -713 l-176 -434 0 -118 0 -118
186 -563 c103 -309 213 -641 244 -737 l57 -175 211 -3 211 -2 -18 52 c-10 29
-85 242 -166 473 -172 492 -186 532 -300 859 l-86 249 328 745 c180 409 330
748 331 753 2 5 -92 9 -210 9 l-214 0 -111 -277z"/>
<path d="M9000 2720 l0 -1570 200 0 200 0 0 1570 0 1570 -200 0 -200 0 0
-1570z"/>
<path d="M80 1533 c0 -186 3 -348 6 -360 6 -23 7 -23 211 -23 l205 0 -7 23
c-4 12 -10 174 -12 360 l-5 337 -199 0 -199 0 0 -337z"/>
<path d="M4522 1513 l3 -358 209 -3 c196 -2 208 -1 200 15 -5 10 -10 172 -12
361 l-3 342 -200 0 -199 0 2 -357z"/>
<path d="M1530 804 c-90 -39 -150 -144 -135 -240 15 -104 111 -185 216 -185
98 0 167 43 206 129 33 70 28 143 -14 210 -53 87 -180 126 -273 86z m162 -60
c62 -32 97 -115 78 -186 -16 -57 -33 -81 -81 -107 -102 -58 -229 21 -229 141
0 135 116 211 232 152z"/>
<path d="M3405 810 c-81 -25 -145 -117 -145 -208 0 -243 315 -311 425 -93 26
52 18 156 -18 210 -42 63 -97 95 -171 98 -33 1 -74 -2 -91 -7z m162 -71 c37
-23 73 -91 73 -140 0 -45 -37 -117 -73 -143 -21 -16 -44 -21 -87 -21 -71 0
-105 21 -137 85 -28 55 -29 101 -3 156 43 88 142 115 227 63z"/>
<path d="M8165 810 c-81 -25 -145 -117 -145 -208 0 -209 251 -304 387 -148 88
99 65 258 -48 333 -45 30 -137 41 -194 23z m162 -71 c37 -23 73 -91 73 -140 0
-45 -37 -117 -73 -143 -21 -16 -44 -21 -87 -21 -71 0 -105 21 -137 85 -28 55
-29 101 -3 156 43 88 142 115 227 63z"/>
<path d="M9125 810 c-81 -25 -145 -117 -145 -208 0 -209 251 -304 387 -148 88
99 65 258 -48 333 -45 30 -137 41 -194 23z m162 -71 c37 -23 73 -91 73 -140 0
-45 -37 -117 -73 -143 -21 -16 -44 -21 -87 -21 -71 0 -105 21 -137 85 -28 55
-29 101 -3 156 43 88 142 115 227 63z"/>
<path d="M9705 801 c-79 -36 -125 -111 -125 -201 0 -202 243 -300 382 -153 31
33 58 91 58 128 l0 25 -135 0 -135 0 0 -30 0 -30 101 0 100 0 -18 -31 c-78
-134 -273 -83 -291 76 -15 140 155 237 253 145 17 -16 33 -21 61 -18 l39 3
-41 40 c-64 65 -168 84 -249 46z"/>
<path d="M10545 802 c-168 -81 -168 -318 -1 -404 47 -24 136 -27 187 -5 26 10
41 12 54 4 10 -5 33 -13 52 -17 31 -8 33 -6 33 20 0 21 -6 29 -25 34 -30 8
-31 15 -4 68 17 33 20 55 17 108 -4 79 -35 134 -98 176 -54 36 -157 44 -215
16z m135 -42 c64 -18 120 -93 120 -160 0 -27 -27 -110 -36 -110 -2 0 -34 17
-71 37 -62 34 -74 37 -140 36 l-73 -1 0 34 c0 85 74 167 155 173 6 1 26 -4 45
-9z m-32 -275 c54 -25 64 -38 36 -49 -48 -18 -164 24 -164 59 0 24 68 18 128
-10z"/>
<path d="M100 595 l0 -215 105 0 105 0 0 30 0 30 -75 0 -75 0 0 185 0 185 -30
0 -30 0 0 -215z"/>
<path d="M530 643 c-34 -93 -71 -189 -81 -215 l-19 -48 34 0 c33 0 35 2 58 65
l23 66 80 -3 79 -3 25 -62 c23 -60 26 -63 57 -63 l34 0 -19 48 c-10 26 -47
122 -82 215 -63 166 -64 167 -94 167 -31 0 -32 -1 -95 -167z m129 -12 l19 -61
-53 0 -54 0 26 76 c29 85 31 85 62 -15z"/>
<path d="M970 595 l0 -215 83 0 c107 1 161 23 183 77 21 48 12 98 -22 134 -26
27 -26 30 -11 47 10 11 17 35 17 61 0 36 -6 49 -34 77 -34 34 -35 34 -125 34
l-91 0 0 -215z m177 139 c35 -48 2 -94 -69 -94 l-48 0 0 61 0 62 52 -5 c34 -4
56 -12 65 -24z m11 -170 c16 -11 22 -25 22 -54 0 -51 -26 -70 -97 -70 l-53 0
0 70 0 70 53 0 c31 0 61 -6 75 -16z"/>
<path d="M2000 596 l0 -216 30 0 29 0 3 101 3 101 70 -99 c65 -91 73 -98 108
-101 20 -2 37 -1 37 2 0 3 -25 38 -55 78 -59 79 -63 88 -40 88 35 0 73 30 89
71 22 55 13 111 -24 153 -28 31 -29 31 -139 34 l-111 4 0 -216z m188 144 c27
-17 32 -25 32 -60 0 -26 -7 -47 -19 -59 -21 -21 -74 -35 -112 -29 -23 3 -24 7
-27 86 l-3 82 48 0 c30 0 60 -7 81 -20z"/>
<path d="M2571 788 c-91 -236 -151 -396 -151 -402 0 -4 14 -6 31 -4 28 3 34 9
56 66 l25 62 78 0 78 0 23 -65 c22 -62 24 -65 56 -65 18 0 33 2 33 4 0 3 -131
349 -155 409 -11 26 -63 23 -74 -5z m67 -136 c12 -38 22 -71 22 -75 0 -4 -22
-7 -50 -7 -27 0 -50 3 -50 7 0 16 44 143 50 143 3 0 16 -31 28 -68z"/>
<path d="M2900 785 c0 -22 4 -25 40 -25 l40 0 2 -187 3 -188 33 -3 32 -3 0
190 0 191 40 0 c36 0 40 3 40 25 l0 25 -115 0 -115 0 0 -25z"/>
<path d="M3862 598 l3 -213 33 -3 32 -3 0 215 0 216 -35 0 -35 0 2 -212z"/>
<path d="M4120 595 l0 -215 30 0 29 0 3 101 3 101 70 -99 c65 -91 73 -98 108
-101 42 -4 45 2 19 32 -10 12 -35 45 -56 73 l-37 53 41 16 c99 40 104 192 9
241 -14 8 -64 13 -121 13 l-98 0 0 -215z m188 145 c27 -17 32 -25 32 -60 0
-26 -7 -47 -19 -59 -21 -21 -74 -35 -112 -29 -23 3 -24 7 -27 86 l-3 82 48 0
c30 0 60 -7 81 -20z"/>
<path d="M4570 595 l0 -215 115 0 115 0 0 30 0 30 -85 0 -85 0 0 65 0 65 85 0
85 0 0 30 0 30 -85 0 -85 0 0 65 0 65 85 0 c84 0 85 0 85 25 l0 25 -115 0
-115 0 0 -215z"/>
<path d="M5182 598 l3 -213 105 1 c142 1 198 28 235 117 38 91 8 211 -68 271
-38 30 -42 31 -158 34 l-119 4 2 -214z m225 136 c53 -40 68 -71 68 -139 0 -49
-5 -70 -21 -92 -30 -42 -80 -63 -146 -63 l-58 0 0 161 0 161 65 -4 c44 -3 73
-10 92 -24z"/>
<path d="M5720 595 l0 -215 115 0 115 0 0 30 0 30 -85 0 -85 0 0 65 0 65 85 0
85 0 0 30 0 30 -85 0 -85 0 0 65 0 65 85 0 c84 0 85 0 85 25 l0 25 -115 0
-115 0 0 -215z"/>
<path d="M6120 595 l0 -215 30 0 29 0 3 101 3 101 70 -99 c65 -91 73 -98 108
-101 20 -2 37 -1 37 3 0 3 -25 39 -55 79 -30 40 -55 76 -55 79 0 4 7 7 15 7
85 0 134 133 77 210 -31 41 -60 50 -164 50 l-98 0 0 -215z m188 145 c27 -17
32 -25 32 -60 0 -26 -7 -47 -19 -59 -21 -21 -74 -35 -112 -29 -23 3 -24 7 -27
86 l-3 82 48 0 c30 0 60 -7 81 -20z"/>
<path d="M6570 596 l0 -216 30 0 30 0 2 181 3 181 54 -133 c88 -221 92 -229
111 -229 19 0 22 5 111 229 l54 134 3 -181 2 -182 30 0 30 0 0 216 0 215 -51
-3 -51 -3 -54 -135 c-29 -74 -59 -146 -65 -159 -9 -23 -16 -10 -73 135 l-63
159 -52 3 -51 3 0 -215z"/>
<path d="M7267 602 c-42 -114 -77 -211 -77 -215 0 -5 14 -7 31 -5 28 3 34 9
54 63 l22 60 79 3 80 3 23 -66 c23 -63 24 -65 58 -65 29 0 34 3 28 18 -3 9
-41 106 -82 215 l-76 197 -31 0 -31 0 -78 -208z m138 48 c10 -30 20 -61 23
-67 3 -10 -11 -13 -51 -13 l-56 0 26 76 c14 42 29 72 33 67 4 -4 16 -33 25
-63z"/>
<path d="M7670 785 c0 -22 4 -25 40 -25 l40 0 0 -191 0 -190 33 3 32 3 3 188
2 187 40 0 c36 0 40 3 40 25 l0 25 -115 0 -115 0 0 -25z"/>
<path d="M8640 595 l0 -215 105 0 105 0 0 30 0 30 -75 0 -75 0 0 185 0 185
-30 0 -30 0 0 -215z"/>
<path d="M10180 595 l0 -215 30 0 30 0 0 215 0 215 -30 0 -30 0 0 -215z"/>
<path d="M11022 643 c4 -187 11 -211 65 -244 44 -27 120 -28 165 -2 59 34 68
67 68 251 l0 162 -29 0 -30 0 -3 -166 -3 -166 -28 -24 c-37 -31 -81 -31 -112
1 -25 24 -25 27 -25 190 l0 165 -36 0 -36 0 4 -167z"/>
<path d="M11500 595 l0 -215 115 0 115 0 0 30 0 30 -85 0 -85 0 0 65 0 65 85
0 85 0 0 30 0 30 -85 0 -85 0 0 65 0 65 85 0 c84 0 85 0 85 25 l0 25 -115 0
-115 0 0 -215z"/>
</g>
</svg>
